<svg width="105" height="105" viewBox="0 0 105 105" fill="none" xmlns="http://www.w3.org/2000/svg">
<rect width="105" height="105" rx="52.5" fill="#1A3D37"/>
<g clip-path="url(#clip0_3836_9971)">
<path d="M63.0818 33.5698C63.0818 36.0605 61.8698 38.397 59.8371 39.8303C59.5294 40.0007 59.2297 40.1819 58.9382 40.3766C56.7382 41.8423 55.0672 43.9788 54.1737 46.4694C54.1656 46.4938 54.1548 46.5181 54.1467 46.5425C53.7094 47.7729 53.4718 49.0656 53.4395 50.3745V41.9721C53.4476 41.6395 53.4691 41.3069 53.5042 40.9743C53.6068 40.0088 53.8228 39.0569 54.1467 38.1401C55.5288 34.2215 58.6818 31.4388 62.3854 30.3733C62.847 31.3766 63.0818 32.4664 63.0818 33.5698Z" fill="white"/>
<path d="M57.216 27.8717C57.216 29.8188 56.5223 31.5631 55.3723 32.8963C55.3048 32.9585 55.2401 33.0234 55.1753 33.0883C55.0457 33.2181 54.9215 33.3534 54.8028 33.4913C53.6717 34.7975 53.0157 36.4498 52.9455 38.1806C52.8754 36.4525 52.2194 34.7975 51.0883 33.4913C50.9696 33.3534 50.8454 33.2181 50.7158 33.0883C50.651 33.0234 50.5862 32.9585 50.5187 32.8963C49.3715 31.5658 48.6777 29.8188 48.6777 27.8717C48.6777 24.9537 50.3352 22.29 52.9482 21C55.5613 22.2873 57.216 24.9537 57.216 27.8717Z" fill="white"/>
<path d="M42.8062 33.5698C42.8062 36.0605 44.0182 38.397 46.0509 39.8303C46.3559 40.0007 46.6555 40.1819 46.9498 40.3766C49.1498 41.8423 50.8208 43.9788 51.7143 46.4694C51.7224 46.4938 51.7332 46.5181 51.7413 46.5425C52.1786 47.7729 52.4161 49.0656 52.4485 50.3745V41.9721C52.4404 41.6395 52.4188 41.3069 52.3837 40.9743C52.2812 40.0088 52.0652 39.0569 51.7413 38.1401C50.3592 34.2215 47.2062 31.4388 43.5026 30.3733C43.0437 31.3766 42.8062 32.4664 42.8062 33.5698Z" fill="white"/>
<path d="M68.2727 46.3584C68.0594 44.3464 67.3603 42.4155 66.2346 40.7361C65.881 40.7226 65.5273 40.7226 65.1764 40.7388C64.4125 40.774 63.6539 40.8795 62.9089 41.058L62.9116 41.0634L62.9008 41.0607C62.6282 41.1256 62.3582 41.2013 62.0883 41.2824C58.7626 42.3155 55.9093 44.7413 54.43 48.1271C54.3085 48.4029 54.1978 48.6869 54.0952 48.9735C53.8469 49.6794 53.6606 50.4041 53.5419 51.1451C53.4933 51.4507 53.4555 51.759 53.4285 52.0646C53.6282 52.1132 53.8307 52.1538 54.0332 52.1836C54.735 52.2917 55.4477 52.3026 56.1522 52.216C56.2305 52.2052 56.3088 52.1944 56.3871 52.1836C56.5706 52.1403 56.7569 52.1051 56.9485 52.0754C59.5562 51.4642 61.6537 49.5306 62.4824 46.9777C61.103 48.1514 59.3537 48.7923 57.5451 48.7896C57.4101 48.7896 57.2752 48.7869 57.1402 48.7788C58.4953 46.3801 61.0355 44.9008 63.7862 44.9035C63.9185 44.9035 64.0508 44.9062 64.1803 44.9143C64.183 44.9143 64.1884 44.9143 64.1911 44.9143C64.1884 44.9197 64.183 44.9279 64.1803 44.9333C64.1857 45.055 64.1884 45.1794 64.1884 45.301C64.1884 48.6788 61.9776 51.6562 58.7518 52.6325C58.6222 52.6703 58.4899 52.7082 58.3576 52.7407C57.6045 52.9678 56.8892 53.3113 56.2413 53.7602C56.0496 53.8927 55.8634 54.0333 55.6825 54.1821C55.5016 54.3308 55.3289 54.4904 55.1588 54.6607C54.6378 55.1827 54.1951 55.7776 53.8415 56.4266C53.3286 57.3705 53.0236 58.4143 52.9426 59.4852C52.8049 57.6625 52.0194 55.9507 50.7263 54.6607C50.559 54.4931 50.3862 54.3335 50.2027 54.1821C50.0245 54.0333 49.8382 53.8927 49.6439 53.7602C48.996 53.314 48.2806 52.9705 47.5248 52.7407C47.3925 52.7082 47.2603 52.673 47.1307 52.6325C43.9022 51.6562 41.694 48.6788 41.694 45.301C41.694 45.1766 41.6967 45.055 41.7021 44.9333C41.6967 44.9279 41.694 44.9197 41.6913 44.9143H41.7021C41.8317 44.9062 41.964 44.9035 42.0962 44.9035C44.8443 44.9062 47.3817 46.3855 48.7396 48.7788C48.6046 48.7869 48.4696 48.7896 48.3346 48.7896C46.526 48.7923 44.7768 48.1514 43.3974 46.9777C44.2234 49.5306 46.3236 51.4642 48.9312 52.0754C49.1202 52.1051 49.3064 52.1403 49.4927 52.1836C49.571 52.1944 49.6493 52.2052 49.7276 52.216C50.4321 52.3026 51.1448 52.2917 51.8466 52.1836C52.0518 52.1511 52.2542 52.1132 52.4513 52.0646C52.4243 51.759 52.3892 51.4507 52.3379 51.1451C52.2191 50.4068 52.0329 49.6794 51.7845 48.9735C51.6819 48.6842 51.5713 48.4029 51.4498 48.1271C49.9705 44.7385 47.1172 42.3155 43.7915 41.2824C43.5242 41.1986 43.2543 41.1256 42.979 41.0607L42.9682 41.0634L42.9709 41.058C42.2258 40.8822 41.4673 40.774 40.7033 40.7388C40.3524 40.7226 39.9988 40.7226 39.6452 40.7361C38.5195 42.4155 37.8176 44.3464 37.6071 46.3584C37.4559 47.7971 37.5612 49.2494 37.9148 50.6502V50.6529C38.2819 51.8374 38.9325 52.9137 39.8098 53.7899C39.9772 53.9576 40.1526 54.1172 40.3335 54.2686C41.4052 55.161 42.7036 55.7425 44.083 55.948H44.0857C44.2369 55.9615 44.3854 55.9804 44.5365 56.0021C46.939 56.3347 49.1904 57.3623 51.0152 58.9633C51.7197 59.5826 52.3514 60.2803 52.8994 61.0429C52.9372 61.0916 52.9345 61.0916 52.9372 61.0916C52.9399 61.0916 52.9372 61.0916 52.975 61.0429C54.9564 58.2872 57.977 56.4645 61.3351 56.0021C61.4836 55.9804 61.6348 55.9642 61.7859 55.948H61.7886C63.168 55.7425 64.4665 55.161 65.5381 54.2686C65.719 54.1172 65.8945 53.9576 66.0618 53.7899C66.9365 52.9137 67.587 51.8374 67.9568 50.6529V50.6502C68.3186 49.2494 68.4211 47.7944 68.2727 46.3584Z" fill="white"/>
<path d="M22.2555 79.3187C21.7507 79.1105 21.3188 78.7698 20.9598 78.2965C20.6008 77.8205 20.4199 77.1931 20.4199 76.4116C20.4199 75.246 20.9598 74.4185 22.0396 73.929C23.1194 73.4395 24.5312 73.1934 26.275 73.1934H26.9634C26.9634 71.6898 26.7555 70.6649 26.3425 70.1105C25.9295 69.5588 25.3329 69.283 24.5528 69.283C23.8644 69.283 23.3137 69.429 22.9007 69.7211C22.4877 70.0131 22.1962 70.5189 22.0288 71.2382H20.9949C20.9949 70.7163 21.0246 70.3079 21.0867 70.0077C21.1488 69.7076 21.308 69.429 21.5699 69.1694C21.8452 68.8936 22.3014 68.6907 22.9358 68.5609C23.5702 68.4311 24.2639 68.3662 25.0144 68.3662C26.2534 68.3662 27.2333 68.6988 27.954 69.3668C28.6721 70.0348 29.0338 71.3112 29.0338 73.1961V79.4053H27.8812L27.0767 78.3695H26.9634C26.688 78.7211 26.2831 79.0213 25.7459 79.2674C25.2087 79.5134 24.5447 79.6351 23.7483 79.6351C23.2597 79.6297 22.7603 79.527 22.2555 79.3187ZM26.0428 78.2262C26.3803 77.9801 26.6853 77.6448 26.9607 77.2148V74.1102H26.2723C25.1385 74.1102 24.245 74.3211 23.5864 74.743C22.9277 75.1649 22.5984 75.7193 22.5984 76.4116C22.5984 77.1174 22.8089 77.6583 23.23 78.0342C23.6511 78.4101 24.1667 78.5967 24.7795 78.5967C25.287 78.594 25.7081 78.4723 26.0428 78.2262Z" fill="white"/>
<path d="M32.5295 83.1481C31.6198 82.5802 31.1636 81.6769 31.1636 80.4356C31.1636 79.7298 31.4011 79.1159 31.8762 78.5967C32.3513 78.0748 32.956 77.6935 33.6902 77.4474C33.0775 77.1093 32.7724 76.6496 32.7724 76.0682C32.7724 75.7626 32.8426 75.5246 32.9803 75.3542C33.118 75.1865 33.3177 75.0026 33.5769 74.8025C33.0856 74.5564 32.678 74.1751 32.3486 73.6532C32.0193 73.1313 31.8546 72.5201 31.8546 71.8142C31.8546 69.5156 33.3096 68.3635 36.2169 68.3635H40.4604V68.9395L38.9676 69.1694V69.2857C39.4427 69.5318 39.8288 69.8725 40.1257 70.3079C40.4253 70.746 40.5738 71.2463 40.5738 71.8142C40.5738 74.1129 39.1188 75.265 36.2115 75.265C34.6054 75.265 33.8009 75.5327 33.8009 76.0709C33.8009 76.609 34.6054 76.8767 36.2115 76.8767C37.6962 76.8767 38.9083 77.1715 39.8504 77.7611C40.7925 78.3506 41.2622 79.243 41.2622 80.4411C41.2622 81.6823 40.806 82.5883 39.8962 83.1535C38.9865 83.7214 37.7583 84.0054 36.2115 84.0054C34.6674 83.9999 33.4392 83.716 32.5295 83.1481ZM38.3927 82.4233C38.9272 81.9852 39.1971 81.3227 39.1971 80.4329C39.1971 78.8996 38.2793 78.018 36.4437 77.7881L35.1803 77.6745C34.5514 77.9206 34.0709 78.2641 33.7334 78.7103C33.396 79.1565 33.2286 79.7298 33.2286 80.4356C33.2286 81.3254 33.4959 81.9879 34.0331 82.426C34.5676 82.8641 35.2964 83.0805 36.2142 83.0805C37.132 83.0805 37.8582 82.8614 38.3927 82.4233ZM37.8771 73.8236C38.2982 73.4017 38.5087 72.731 38.5087 71.8115C38.5087 70.938 38.2982 70.2782 37.8771 69.8347C37.456 69.3912 36.9026 69.1667 36.2115 69.1667C35.5205 69.1667 34.9671 69.3776 34.546 69.7995C34.1249 70.2214 33.9143 70.8921 33.9143 71.8115C33.9143 72.731 34.1249 73.4017 34.546 73.8236C34.9671 74.2454 35.5205 74.4564 36.2115 74.4564C36.9026 74.4564 37.456 74.2454 37.8771 73.8236Z" fill="white"/>
<path d="M43.3757 69.6156C43.1625 69.2397 42.7332 69.0531 42.0908 69.0531H41.8613V68.5934H43.6969C44.2773 68.5934 44.7173 68.6745 45.017 68.8341C45.3166 68.9937 45.5245 69.2587 45.6486 69.6265H45.7647C46.0401 69.2749 46.4099 68.9747 46.8769 68.7286C47.3439 68.4825 47.8919 68.3608 48.5181 68.3608C49.1309 68.3608 49.5898 68.4771 49.8948 68.707C50.154 68.9071 50.4239 69.2506 50.6993 69.7427L49.7815 70.4324C49.6141 70.2025 49.3685 70.0294 49.0472 69.9158C48.726 69.7995 48.3589 69.7427 47.9459 69.7427C47.487 69.7427 47.0658 69.8455 46.6825 70.0537C46.2992 70.262 45.9942 70.5405 45.7647 70.8921V79.3999H43.6996V71.3518C43.6969 70.5703 43.589 69.9915 43.3757 69.6156Z" fill="white"/>
<path d="M54.1412 78.8834C53.3746 78.3858 52.7942 77.707 52.3974 76.847C52.0005 75.9897 51.8008 75.0378 51.8008 73.9966C51.8008 72.9555 52.0005 72.0036 52.3974 71.1463C52.7942 70.289 53.3773 69.6102 54.1412 69.1099C54.9051 68.6123 55.8094 68.3635 56.8487 68.3635C57.888 68.3635 58.7923 68.6123 59.5563 69.1099C60.3202 69.6075 60.9033 70.2863 61.3001 71.1463C61.6969 72.0063 61.8967 72.9555 61.8967 73.9966C61.8967 75.0405 61.6969 75.9897 61.3001 76.847C60.9033 77.707 60.3202 78.3831 59.5563 78.8834C58.7896 79.381 57.888 79.6298 56.8487 79.6298C55.8094 79.6298 54.9051 79.381 54.1412 78.8834ZM58.355 78.0883C58.7923 77.6745 59.1271 77.1066 59.3646 76.3873C59.6022 75.6679 59.7209 74.8701 59.7209 73.9966C59.7209 73.1231 59.6022 72.3254 59.3646 71.606C59.1271 70.8867 58.7896 70.3188 58.355 69.905C57.9177 69.4912 57.4183 69.283 56.8514 69.283C56.2845 69.283 55.7851 69.4912 55.3478 69.905C54.9105 70.3188 54.5758 70.8867 54.3383 71.606C54.1007 72.3281 53.9819 73.1231 53.9819 73.9966C53.9819 74.8701 54.1007 75.6679 54.3383 76.3873C54.5758 77.1093 54.9132 77.6745 55.3478 78.0883C55.7851 78.502 56.2845 78.7103 56.8514 78.7103C57.4156 78.7103 57.9177 78.502 58.355 78.0883Z" fill="white"/>
<path d="M64.5854 79.3079C64.3397 79.0943 64.2183 78.8103 64.2183 78.456C64.2183 78.118 64.3397 77.8124 64.5854 77.5366C64.831 77.2607 65.1199 77.1228 65.4573 77.1228C65.8082 77.1228 66.1025 77.2607 66.34 77.5366C66.5776 77.8124 66.6963 78.118 66.6963 78.456C66.6963 78.8076 66.5749 79.0916 66.3292 79.3079C66.0836 79.5215 65.792 79.6297 65.4573 79.6297C65.1226 79.6297 64.831 79.5215 64.5854 79.3079Z" fill="white"/>
<path d="M69.6603 69.6157C69.4471 69.2398 69.0179 69.0532 68.3754 69.0532H67.9165V68.5934H69.9816C70.5485 68.5934 70.9723 68.6664 71.2557 68.8125C71.5392 68.9585 71.7416 69.2235 71.8631 69.6049C71.9846 69.9889 72.0466 70.5703 72.0466 71.3518V79.3999H69.9816V71.3518C69.9816 70.5703 69.8736 69.9916 69.6603 69.6157ZM69.9465 66.7734C69.6927 66.4814 69.5686 66.1379 69.5686 65.7377C69.5686 65.4158 69.663 65.1616 69.8547 64.9777C70.0464 64.7939 70.3028 64.7019 70.624 64.7019C70.975 64.7019 71.2773 64.8479 71.5311 65.14C71.7848 65.4321 71.909 65.7755 71.909 66.1758C71.909 66.4976 71.8145 66.7518 71.6228 66.9357C71.4312 67.1196 71.1747 67.2115 70.8535 67.2115C70.4999 67.2115 70.1975 67.0655 69.9465 66.7734Z" fill="#FAB737"/>
<path d="M75.3049 69.6156C75.0916 69.2397 74.6624 69.0531 74.0199 69.0531H73.561V68.5934H75.6261C76.193 68.5934 76.6249 68.6691 76.9218 68.8233C77.2215 68.9774 77.4374 69.2073 77.5751 69.5129H77.6912C78.0124 69.191 78.4281 68.9179 78.941 68.6962C79.4539 68.4744 80.0316 68.3635 80.6741 68.3635C81.8213 68.3635 82.758 68.6691 83.4869 69.283C84.213 69.8969 84.5774 70.9705 84.5774 72.5039V79.4026H82.5124V72.5039C82.5124 71.4302 82.2721 70.646 81.7889 70.1457C81.3057 69.6481 80.7064 69.3993 79.9857 69.3993C79.1732 69.3993 78.4092 69.8049 77.6912 70.6189V79.4053H75.6261V71.3572C75.6288 70.5703 75.5208 69.9915 75.3049 69.6156Z" fill="#FAB737"/>
</g>
<defs>
<clipPath id="clip0_3836_9971">
<rect width="67" height="63" fill="white" transform="translate(19 21)"/>
</clipPath>
</defs>
</svg>
