<svg width="500" height="120" viewBox="0 0 500 120" fill="none" xmlns="http://www.w3.org/2000/svg">
<path d="M75.9796 34.5469C75.9796 41.3923 72.3741 47.8141 66.3273 51.7534C65.4119 52.2217 64.5205 52.7197 63.6532 53.2548C57.1086 57.2833 52.1379 63.1551 49.4799 70.0006C49.4558 70.0675 49.4237 70.1344 49.3996 70.2012C48.0987 73.5831 47.392 77.1359 47.2957 80.7333V57.6401C47.3197 56.7259 47.384 55.8116 47.4884 54.8974C47.7935 52.244 48.4359 49.6277 49.3996 47.108C53.511 36.3381 62.8904 28.6899 73.9078 25.7615C75.281 28.519 75.9796 31.5143 75.9796 34.5469Z" fill="white"/>
<path d="M58.5323 18.8863C58.5323 24.2378 56.4685 29.0319 53.0477 32.6962C52.8469 32.8671 52.6542 33.0455 52.4615 33.2239C52.076 33.5807 51.7066 33.9523 51.3533 34.3314C47.9886 37.9213 46.0373 42.4627 45.8285 47.2196C45.6197 42.4701 43.6683 37.9213 40.3037 34.3314C39.9503 33.9523 39.581 33.5807 39.1955 33.2239C39.0028 33.0455 38.8101 32.8671 38.6093 32.6962C35.1965 29.0393 33.1327 24.2378 33.1327 18.8863C33.1327 10.8665 38.0632 3.54537 45.8365 0C53.6098 3.53794 58.5323 10.8665 58.5323 18.8863Z" fill="white"/>
<path d="M15.6674 34.5469C15.6674 41.3923 19.2729 47.8141 25.3197 51.7534C26.2271 52.2217 27.1185 52.7197 27.9938 53.2548C34.5384 57.2833 39.5091 63.1551 42.1671 70.0006C42.1912 70.0675 42.2233 70.1344 42.2474 70.2012C43.5483 73.5831 44.255 77.1359 44.3513 80.7333V57.6401C44.3272 56.7259 44.263 55.8116 44.1586 54.8974C43.8535 52.244 43.211 49.6277 42.2474 47.108C38.1359 36.3381 28.7566 28.6899 17.7392 25.7615C16.374 28.519 15.6674 31.5143 15.6674 34.5469Z" fill="white"/>
<path d="M91.4228 69.6955C90.7885 64.1656 88.7086 58.8587 85.36 54.2431C84.3081 54.2059 83.2561 54.2059 82.2122 54.2505C79.9396 54.3471 77.6831 54.637 75.4668 55.1276L75.4748 55.1424L75.4427 55.135C74.6316 55.3134 73.8286 55.5215 73.0256 55.7445C63.1323 58.5837 54.6444 65.2508 50.2438 74.5565C49.8825 75.3146 49.5532 76.095 49.2481 76.8829C48.5093 78.8228 47.9552 80.8148 47.6019 82.8513C47.4573 83.6912 47.3449 84.5385 47.2646 85.3784C47.8589 85.5122 48.4611 85.6237 49.0634 85.7054C51.1512 86.0028 53.2712 86.0325 55.3671 85.7946C55.6 85.7649 55.8329 85.7352 56.0657 85.7054C56.6118 85.5865 57.1659 85.4899 57.736 85.4081C65.4932 83.7284 71.7327 78.414 74.198 71.3976C70.0946 74.6234 64.891 76.3849 59.5107 76.3775C59.1092 76.3775 58.7077 76.37 58.3062 76.3477C62.3374 69.755 69.8938 65.6893 78.0766 65.6968C78.4701 65.6968 78.8636 65.7042 79.249 65.7265C79.257 65.7265 79.2731 65.7265 79.2811 65.7265C79.2731 65.7414 79.257 65.7637 79.249 65.7785C79.2651 66.113 79.2731 66.4549 79.2731 66.7894C79.2731 76.0727 72.6963 84.2561 63.1002 86.9393C62.7148 87.0433 62.3213 87.1474 61.9278 87.2366C59.6874 87.8609 57.5594 88.8049 55.6321 90.0387C55.062 90.4029 54.5079 90.7894 53.9699 91.1982C53.4318 91.607 52.9179 92.0455 52.412 92.5137C50.8622 93.9482 49.5452 95.5834 48.4932 97.3673C46.9675 99.9613 46.0601 102.83 45.8192 105.774C45.4096 100.764 43.0728 96.0591 39.2264 92.5137C38.7285 92.0529 38.2145 91.6144 37.6685 91.1982C37.1385 90.7894 36.5844 90.4029 36.0062 90.0387C34.079 88.8123 31.951 87.8683 29.7025 87.2366C29.309 87.1474 28.9155 87.0508 28.5301 86.9393C18.9259 84.2561 12.3572 76.0727 12.3572 66.7894C12.3572 66.4475 12.3652 66.113 12.3813 65.7785C12.3652 65.7637 12.3572 65.7414 12.3492 65.7265H12.3813C12.7667 65.7042 13.1602 65.6968 13.5537 65.6968C21.7285 65.7042 29.2769 69.7699 33.3161 76.3477C32.9146 76.37 32.5131 76.3775 32.1116 76.3775C26.7313 76.3849 21.5277 74.6234 17.4243 71.3976C19.8815 78.414 26.129 83.7284 33.8862 85.4081C34.4484 85.4899 35.0024 85.5865 35.5565 85.7054C35.7894 85.7352 36.0223 85.7649 36.2552 85.7946C38.3511 86.0325 40.471 86.0028 42.5589 85.7054C43.1692 85.6163 43.7715 85.5122 44.3577 85.3784C44.2774 84.5385 44.173 83.6912 44.0204 82.8513C43.6671 80.8222 43.113 78.8228 42.3742 76.8829C42.069 76.0876 41.7398 75.3146 41.3784 74.5565C36.9779 65.2434 28.4899 58.5837 18.5967 55.7445C17.8017 55.5141 16.9987 55.3134 16.1796 55.135L16.1475 55.1424L16.1555 55.1276C13.9392 54.6444 11.6827 54.3471 9.41011 54.2505C8.36618 54.2059 7.31422 54.2059 6.26226 54.2431C2.91365 58.8587 0.82579 64.1656 0.199432 69.6955C-0.250261 73.6497 0.0629203 77.641 1.11488 81.4911V81.4986C2.20699 84.7541 4.14228 87.7123 6.7521 90.1204C7.24998 90.5813 7.77194 91.0198 8.30996 91.436C11.498 93.8888 15.3605 95.4868 19.464 96.0517H19.472C19.9217 96.0889 20.3633 96.1409 20.813 96.2003C27.9599 97.1146 34.6572 99.939 40.0856 104.339C42.1815 106.041 44.0606 107.959 45.6907 110.055C45.8031 110.189 45.7951 110.189 45.8031 110.189C45.8111 110.189 45.8031 110.189 45.9155 110.055C51.8097 102.481 60.7955 97.4713 70.7852 96.2003C71.2268 96.1409 71.6765 96.0963 72.1262 96.0517H72.1342C76.2377 95.4868 80.1002 93.8888 83.2882 91.436C83.8262 91.0198 84.3482 90.5813 84.8461 90.1204C87.4479 87.7123 89.3832 84.7541 90.4833 81.4986V81.4911C91.5594 77.641 91.8645 73.6423 91.4228 69.6955Z" fill="white"/>
<path d="M131.9 94.15C128.919 93.0137 126.368 91.1542 124.247 88.5717C122.127 85.9744 121.059 82.5506 121.059 78.2857C121.059 71.9253 124.247 67.4095 130.625 64.7384C137.003 62.0673 145.341 60.7244 155.641 60.7244H159.707C159.707 52.5192 158.479 46.9262 156.04 43.9009C153.6 40.8904 150.077 39.3851 145.469 39.3851C141.403 39.3851 138.151 40.182 135.711 41.7758C133.272 43.3696 131.55 46.1292 130.561 50.0547H124.455C124.455 47.2065 124.63 44.9782 124.997 43.3401C125.363 41.702 126.304 40.182 127.851 38.7653C129.477 37.26 132.172 36.1532 135.918 35.4449C139.665 34.7365 143.763 34.3823 148.195 34.3823C155.513 34.3823 161.301 36.1975 165.558 39.8426C169.799 43.4877 171.936 50.4532 171.936 60.7391V94.6222H165.128L160.376 88.9701H159.707C158.08 90.8886 155.689 92.5267 152.516 93.8696C149.343 95.2126 145.421 95.8766 140.717 95.8766C137.832 95.8471 134.882 95.2863 131.9 94.15ZM154.27 88.188C156.263 86.8451 158.065 85.0151 159.691 82.6687V65.7272H155.625C148.929 65.7272 143.651 66.8782 139.761 69.1804C135.871 71.4826 133.925 74.5078 133.925 78.2857C133.925 82.1374 135.169 85.0889 137.656 87.1402C140.144 89.1915 143.189 90.2098 146.808 90.2098C149.806 90.195 152.293 89.5309 154.27 88.188Z" fill="white"/>
<path d="M192.582 115.047C187.209 111.948 184.515 107.019 184.515 100.245C184.515 96.3932 185.918 93.0433 188.724 90.2099C191.53 87.3617 195.101 85.2809 199.438 83.938C195.819 82.0933 194.017 79.5845 194.017 76.4117C194.017 74.7441 194.432 73.4454 195.245 72.5157C196.058 71.6007 197.238 70.5972 198.768 69.5052C195.867 68.1622 193.459 66.0814 191.514 63.2332C189.569 60.3851 188.596 57.0499 188.596 53.1982C188.596 40.6543 197.19 34.3677 214.362 34.3677H239.425V37.511L230.608 38.7654V39.4C233.415 40.7429 235.695 42.6023 237.448 44.9783C239.218 47.369 240.095 50.0991 240.095 53.1982C240.095 65.742 231.501 72.0287 214.33 72.0287C204.843 72.0287 200.092 73.4897 200.092 76.4264C200.092 79.3631 204.843 80.8241 214.33 80.8241C223.099 80.8241 230.258 82.4327 235.822 85.6498C241.387 88.8669 244.161 93.7369 244.161 100.274C244.161 107.048 241.466 111.992 236.093 115.076C230.72 118.175 223.466 119.725 214.33 119.725C205.21 119.695 197.955 118.146 192.582 115.047ZM227.212 111.092C230.369 108.701 231.964 105.085 231.964 100.23C231.964 91.8627 226.543 87.0518 215.701 85.7974L208.239 85.1776C204.524 86.5205 201.686 88.3947 199.693 90.8297C197.7 93.2647 196.712 96.3932 196.712 100.245C196.712 105.1 198.29 108.716 201.463 111.106C204.62 113.497 208.925 114.678 214.346 114.678C219.767 114.678 224.056 113.482 227.212 111.092ZM224.167 64.163C226.654 61.8608 227.898 58.201 227.898 53.1834C227.898 48.4168 226.654 44.816 224.167 42.3957C221.68 39.9755 218.411 38.7506 214.33 38.7506C210.248 38.7506 206.98 39.9017 204.492 42.2039C202.005 44.506 200.761 48.1659 200.761 53.1834C200.761 58.201 202.005 61.8608 204.492 64.163C206.98 66.4651 210.248 67.6162 214.33 67.6162C218.411 67.6162 221.68 66.4651 224.167 64.163Z" fill="white"/>
<path d="M256.646 41.2014C255.386 39.1502 252.851 38.1319 249.056 38.1319H247.701V35.6231H258.543C261.971 35.6231 264.57 36.0659 266.34 36.9366C268.109 37.8072 269.337 39.2535 270.071 41.2605H270.756C272.382 39.342 274.567 37.7039 277.325 36.361C280.083 35.0181 283.32 34.354 287.019 34.354C290.638 34.354 293.349 34.9886 295.15 36.2429C296.681 37.335 298.275 39.2092 299.902 41.8951L294.481 45.6582C293.492 44.4038 292.041 43.4594 290.144 42.8395C288.247 42.205 286.078 41.8951 283.639 41.8951C280.928 41.8951 278.441 42.4558 276.177 43.5922C273.913 44.7285 272.111 46.2485 270.756 48.167V94.5939H258.559V50.6757C258.543 46.4108 257.905 43.2527 256.646 41.2014Z" fill="white"/>
<path d="M320.231 91.7742C315.703 89.0588 312.275 85.3547 309.931 80.6618C307.587 75.9837 306.407 70.7891 306.407 65.1074C306.407 59.4258 307.587 54.2312 309.931 49.5531C312.275 44.875 315.719 41.1709 320.231 38.4407C324.743 35.7254 330.084 34.3677 336.223 34.3677C342.361 34.3677 347.702 35.7254 352.214 38.4407C356.727 41.1561 360.17 44.8602 362.514 49.5531C364.858 54.246 366.038 59.4258 366.038 65.1074C366.038 70.8038 364.858 75.9837 362.514 80.6618C360.17 85.3547 356.727 89.044 352.214 91.7742C347.686 94.4895 342.361 95.8472 336.223 95.8472C330.084 95.8472 324.743 94.4895 320.231 91.7742ZM345.119 87.4355C347.702 85.1776 349.679 82.0785 351.082 78.1531C352.486 74.2276 353.187 69.8741 353.187 65.1074C353.187 60.3408 352.486 55.9874 351.082 52.0619C349.679 48.1364 347.686 45.0373 345.119 42.7794C342.536 40.5215 339.587 39.3852 336.239 39.3852C332.89 39.3852 329.941 40.5215 327.358 42.7794C324.775 45.0373 322.798 48.1364 321.395 52.0619C319.992 56.0021 319.29 60.3408 319.29 65.1074C319.29 69.8741 319.992 74.2276 321.395 78.1531C322.798 82.0933 324.791 85.1776 327.358 87.4355C329.941 89.6934 332.89 90.8297 336.239 90.8297C339.571 90.8297 342.536 89.6934 345.119 87.4355Z" fill="white"/>
<path d="M381.916 94.0913C380.466 92.9254 379.748 91.3759 379.748 89.4427C379.748 87.598 380.466 85.9304 381.916 84.4251C383.367 82.9199 385.073 82.1672 387.066 82.1672C389.139 82.1672 390.877 82.9199 392.28 84.4251C393.683 85.9304 394.385 87.598 394.385 89.4427C394.385 91.3611 393.667 92.9107 392.216 94.0913C390.765 95.2571 389.043 95.8474 387.066 95.8474C385.089 95.8474 383.367 95.2571 381.916 94.0913Z" fill="white"/>
<path d="M411.893 41.2C410.633 39.1487 408.098 38.1305 404.304 38.1305H401.593V35.6217H413.79C417.139 35.6217 419.642 36.0202 421.316 36.8171C422.99 37.614 424.186 39.0602 424.903 41.141C425.621 43.2366 425.988 46.4094 425.988 50.6743V94.5925H413.79V50.6743C413.79 46.4094 413.153 43.2513 411.893 41.2ZM413.583 25.6899C412.084 24.0961 411.351 22.222 411.351 20.0379C411.351 18.2817 411.909 16.8945 413.041 15.891C414.173 14.8875 415.688 14.3857 417.585 14.3857C419.658 14.3857 421.443 15.1826 422.942 16.7764C424.441 18.3702 425.174 20.2444 425.174 22.4286C425.174 24.1847 424.616 25.5719 423.484 26.5754C422.352 27.5789 420.838 28.0807 418.94 28.0807C416.852 28.0807 415.066 27.2837 413.583 25.6899Z" fill="#FAB737"/>
<path d="M445.232 41.2004C443.973 39.1491 441.438 38.1308 437.643 38.1308H434.932V35.6221H447.13C450.478 35.6221 453.029 36.0353 454.783 36.8764C456.552 37.7176 457.828 38.972 458.641 40.6396H459.327C461.224 38.8835 463.679 37.3929 466.709 36.1828C469.738 34.9727 473.15 34.3677 476.945 34.3677C483.721 34.3677 489.254 36.0353 493.558 39.3852C497.847 42.7352 500 48.5939 500 56.9613V94.6076H487.803V56.9613C487.803 51.1026 486.384 46.823 483.53 44.0928C480.676 41.3775 477.136 40.0198 472.879 40.0198C468.08 40.0198 463.568 42.2334 459.327 46.6754V94.6223H447.13V50.7042C447.146 46.4097 446.508 43.2517 445.232 41.2004Z" fill="#FAB737"/>
</svg>
