<svg width="120" height="32" viewBox="0 0 120 32" fill="none" xmlns="http://www.w3.org/2000/svg">
<path d="M18.2353 9.05443C18.2353 10.8281 17.3699 12.4921 15.9187 13.5128C15.699 13.6341 15.4851 13.7631 15.2769 13.9018C13.7062 14.9456 12.5132 16.467 11.8753 18.2407C11.8695 18.2581 11.8618 18.2754 11.856 18.2927C11.5438 19.169 11.3742 20.0895 11.3511 21.0216V15.038C11.3569 14.8012 11.3723 14.5643 11.3973 14.3274C11.4706 13.6399 11.6247 12.962 11.856 12.3091C12.8428 9.51856 15.0938 7.53686 17.738 6.77808C18.0676 7.49257 18.2353 8.26868 18.2353 9.05443Z" fill="#1A3D37"/>
<path d="M14.0476 4.99661C14.0476 6.38322 13.5523 7.62539 12.7313 8.57483C12.6831 8.61913 12.6368 8.66535 12.5906 8.71157C12.4981 8.80401 12.4094 8.9003 12.3246 8.99852C11.5171 9.9287 11.0488 11.1054 10.9987 12.3379C10.9486 11.1073 10.4802 9.9287 9.67271 8.99852C9.58791 8.9003 9.49925 8.80401 9.40674 8.71157C9.36049 8.66535 9.31423 8.61913 9.26605 8.57483C8.44697 7.62732 7.95166 6.38322 7.95166 4.99661C7.95166 2.91862 9.135 1.02166 11.0006 0.103027C12.8662 1.01973 14.0476 2.91862 14.0476 4.99661Z" fill="#1A3D37"/>
<path d="M3.76001 9.05443C3.76001 10.8281 4.62535 12.4921 6.07658 13.5128C6.29436 13.6341 6.50829 13.7631 6.71836 13.9018C8.28908 14.9456 9.48206 16.467 10.12 18.2407C10.1258 18.2581 10.1335 18.2754 10.1393 18.2927C10.4515 19.169 10.6211 20.0895 10.6442 21.0216V15.038C10.6384 14.8012 10.623 14.5643 10.5979 14.3274C10.5247 13.6399 10.3705 12.962 10.1393 12.3091C9.15249 9.51856 6.90145 7.53686 4.25724 6.77808C3.92961 7.49257 3.76001 8.26868 3.76001 9.05443Z" fill="#1A3D37"/>
<path d="M21.9416 18.1617C21.7893 16.7289 21.2902 15.3538 20.4865 14.1579C20.234 14.1482 19.9816 14.1482 19.731 14.1598C19.1856 14.1848 18.644 14.2599 18.1121 14.3871L18.114 14.3909L18.1063 14.389C17.9117 14.4352 17.7189 14.4891 17.5262 14.5469C15.1518 15.2826 13.1147 17.0101 12.0586 19.4212C11.9718 19.6177 11.8928 19.8199 11.8196 20.024C11.6423 20.5267 11.5093 21.0428 11.4245 21.5705C11.3898 21.7881 11.3628 22.0076 11.3436 22.2253C11.4862 22.2599 11.6307 22.2888 11.7753 22.31C12.2764 22.387 12.7851 22.3947 13.2882 22.3331C13.3441 22.3254 13.3999 22.3177 13.4558 22.31C13.5869 22.2792 13.7199 22.2541 13.8567 22.233C15.7184 21.7977 17.2159 20.4207 17.8076 18.6027C16.8228 19.4386 15.5739 19.895 14.2826 19.8931C14.1863 19.8931 14.0899 19.8911 13.9935 19.8853C14.961 18.1771 16.7746 17.1237 18.7385 17.1256C18.8329 17.1256 18.9273 17.1275 19.0198 17.1333C19.0218 17.1333 19.0256 17.1333 19.0276 17.1333C19.0256 17.1372 19.0218 17.1429 19.0198 17.1468C19.0237 17.2335 19.0256 17.322 19.0256 17.4087C19.0256 19.8141 17.4472 21.9344 15.1441 22.6297C15.0516 22.6566 14.9572 22.6836 14.8627 22.7067C14.325 22.8685 13.8143 23.1131 13.3518 23.4328C13.2149 23.5271 13.0819 23.6273 12.9528 23.7332C12.8237 23.8391 12.7003 23.9527 12.5789 24.0741C12.207 24.4458 11.8909 24.8694 11.6384 25.3316C11.2722 26.0038 11.0545 26.7471 10.9966 27.5098C10.8984 26.2118 10.3375 24.9927 9.41437 24.0741C9.29488 23.9547 9.17153 23.841 9.04048 23.7332C8.91328 23.6273 8.78029 23.5271 8.64153 23.4328C8.17899 23.115 7.66826 22.8704 7.12863 22.7067C7.03419 22.6836 6.93976 22.6586 6.84725 22.6297C4.54224 21.9344 2.96574 19.8141 2.96574 17.4087C2.96574 17.3201 2.96767 17.2335 2.97152 17.1468C2.96767 17.1429 2.96574 17.1372 2.96381 17.1333H2.97152C3.06403 17.1275 3.15847 17.1256 3.2529 17.1256C5.21486 17.1275 7.02648 18.181 7.9959 19.8853C7.89954 19.8911 7.80317 19.8931 7.70681 19.8931C6.41554 19.895 5.16668 19.4386 4.18184 18.6027C4.77159 20.4207 6.271 21.7977 8.13274 22.233C8.26764 22.2541 8.40062 22.2792 8.5336 22.31C8.5895 22.3177 8.64539 22.3254 8.70128 22.3331C9.20429 22.3947 9.71309 22.387 10.2142 22.31C10.3607 22.2869 10.5052 22.2599 10.6459 22.2253C10.6266 22.0076 10.6016 21.7881 10.5649 21.5705C10.4801 21.0447 10.3472 20.5267 10.1699 20.024C10.0966 19.8179 10.0176 19.6177 9.93087 19.4212C8.87473 17.0081 6.83761 15.2826 4.46323 14.5469C4.27243 14.4872 4.0797 14.4352 3.88312 14.389L3.87541 14.3909L3.87734 14.3871C3.34541 14.2619 2.80385 14.1848 2.25844 14.1598C2.00789 14.1482 1.75542 14.1482 1.50295 14.1579C0.699279 15.3538 0.198191 16.7289 0.047864 18.1617C-0.0600628 19.1863 0.0151009 20.2204 0.267572 21.218V21.22C0.52968 22.0635 0.994151 22.83 1.62051 23.4539C1.74 23.5733 1.86527 23.687 1.9944 23.7948C2.75952 24.4303 3.68654 24.8444 4.67137 24.9908H4.6733C4.78122 25.0004 4.88722 25.0139 4.99515 25.0293C6.71041 25.2662 8.31775 25.998 9.62058 27.1381C10.1236 27.5791 10.5746 28.076 10.9658 28.6191C10.9928 28.6537 10.9909 28.6537 10.9928 28.6537C10.9947 28.6537 10.9928 28.6537 11.0198 28.6191C12.4344 26.6566 14.591 25.3586 16.9885 25.0293C17.0945 25.0139 17.2024 25.0023 17.3104 24.9908H17.3123C18.2971 24.8444 19.2241 24.4303 19.9893 23.7948C20.1184 23.687 20.2437 23.5733 20.3631 23.4539C20.9876 22.83 21.4521 22.0635 21.7161 21.22V21.218C21.9743 20.2204 22.0476 19.1843 21.9416 18.1617Z" fill="#1A3D37"/>
<path d="M31.656 24.4982C30.9405 24.2037 30.3282 23.7219 29.8193 23.0528C29.3103 22.3798 29.054 21.4927 29.054 20.3876C29.054 18.7396 29.8193 17.5695 31.3499 16.8774C32.8805 16.1853 34.8818 15.8374 37.3538 15.8374H38.3296C38.3296 13.7114 38.0349 12.2622 37.4494 11.4783C36.864 10.6982 36.0183 10.3082 34.9124 10.3082C33.9367 10.3082 33.156 10.5147 32.5706 10.9277C31.9851 11.3406 31.5718 12.0557 31.3346 13.0728H29.869C29.869 12.3348 29.9111 11.7574 29.9991 11.333C30.0871 10.9085 30.3129 10.5147 30.6841 10.1476C31.0744 9.75759 31.7211 9.47081 32.6203 9.28727C33.5196 9.10373 34.503 9.01196 35.5668 9.01196C37.3232 9.01196 38.7122 9.48228 39.7339 10.4268C40.7518 11.3712 41.2645 13.176 41.2645 15.8412V24.6205H39.6306L38.4903 23.156H38.3296C37.9392 23.6531 37.3653 24.0776 36.6038 24.4255C35.8423 24.7735 34.9009 24.9455 33.7721 24.9455C33.0795 24.9379 32.3716 24.7926 31.656 24.4982ZM37.0247 22.9534C37.503 22.6054 37.9354 22.1313 38.3257 21.5233V17.1336H37.3499C35.7428 17.1336 34.4762 17.4319 33.5425 18.0284C32.6088 18.6249 32.142 19.4088 32.142 20.3876C32.142 21.3856 32.4405 22.1504 33.0374 22.6819C33.6344 23.2134 34.3652 23.4772 35.2339 23.4772C35.9533 23.4734 36.5502 23.3013 37.0247 22.9534Z" fill="#1A3D37"/>
<path d="M46.2199 29.9125C44.9304 29.1095 44.2837 27.8324 44.2837 26.0773C44.2837 25.0793 44.6204 24.2113 45.2939 23.4771C45.9674 22.7392 46.8245 22.2 47.8654 21.8521C46.9967 21.3741 46.5643 20.724 46.5643 19.9019C46.5643 19.4699 46.6638 19.1334 46.859 18.8925C47.0541 18.6554 47.3373 18.3954 47.7046 18.1124C47.0082 17.7645 46.4304 17.2253 45.9636 16.4873C45.4967 15.7493 45.2633 14.8852 45.2633 13.8872C45.2633 10.637 47.3258 9.00806 51.447 9.00806H57.4624V9.82251L55.3463 10.1475V10.312C56.0198 10.6599 56.567 11.1417 56.9879 11.7573C57.4126 12.3768 57.6231 13.0842 57.6231 13.8872C57.6231 17.1374 55.5606 18.7663 51.4394 18.7663C49.1626 18.7663 48.0222 19.1448 48.0222 19.9058C48.0222 20.6667 49.1626 21.0452 51.4394 21.0452C53.544 21.0452 55.2621 21.462 56.5976 22.2956C57.9331 23.1292 58.5989 24.391 58.5989 26.0849C58.5989 27.84 57.9522 29.121 56.6626 29.9202C55.3731 30.7232 53.632 31.1247 51.4394 31.1247C49.2506 31.117 47.5095 30.7155 46.2199 29.9125ZM54.5312 28.8878C55.2889 28.2683 55.6716 27.3315 55.6716 26.0735C55.6716 23.9054 54.3705 22.6589 51.7685 22.3338L49.9776 22.1732C49.086 22.5212 48.4049 23.0068 47.9266 23.6377C47.4483 24.2687 47.211 25.0793 47.211 26.0773C47.211 27.3353 47.5898 28.2721 48.3513 28.8916C49.109 29.511 50.1422 29.8169 51.4432 29.8169C52.7442 29.8169 53.7736 29.5072 54.5312 28.8878ZM53.8004 16.7282C54.3973 16.1317 54.6958 15.1834 54.6958 13.8833C54.6958 12.6483 54.3973 11.7153 53.8004 11.0882C53.2034 10.4611 52.419 10.1437 51.4394 10.1437C50.4598 10.1437 49.6753 10.442 49.0784 11.0385C48.4814 11.635 48.183 12.5833 48.183 13.8833C48.183 15.1834 48.4814 16.1317 49.0784 16.7282C49.6753 17.3247 50.4598 17.623 51.4394 17.623C52.419 17.623 53.2034 17.3247 53.8004 16.7282Z" fill="#1A3D37"/>
<path d="M61.5952 10.7786C61.2929 10.2471 60.6845 9.98327 59.7737 9.98327H59.4485V9.33324H62.0506C62.8733 9.33324 63.497 9.44795 63.9217 9.67355C64.3465 9.89915 64.6411 10.2739 64.8172 10.7939H64.9817C65.372 10.2968 65.8962 9.87239 66.5582 9.52442C67.2202 9.17646 67.997 9.00439 68.8848 9.00439C69.7534 9.00439 70.4039 9.16881 70.8363 9.49383C71.2037 9.77679 71.5864 10.2624 71.9767 10.9583L70.6756 11.9334C70.4384 11.6084 70.0902 11.3637 69.6348 11.2031C69.1794 11.0386 68.659 10.9583 68.0736 10.9583C67.423 10.9583 66.8261 11.1036 66.2827 11.3981C65.7394 11.6925 65.307 12.0863 64.9817 12.5834V24.613H62.0544V13.2335C62.0505 12.1284 61.8975 11.3101 61.5952 10.7786Z" fill="#1A3D37"/>
<path d="M76.8557 23.8825C75.769 23.1789 74.9463 22.2191 74.3838 21.0032C73.8213 19.791 73.5381 18.4451 73.5381 16.9729C73.5381 15.5008 73.8213 14.1548 74.3838 12.9427C74.9463 11.7306 75.7728 10.7708 76.8557 10.0634C77.9386 9.35984 79.2205 9.00806 80.6938 9.00806C82.167 9.00806 83.4489 9.35984 84.5318 10.0634C85.6147 10.767 86.4413 11.7267 87.0038 12.9427C87.5663 14.1587 87.8494 15.5008 87.8494 16.9729C87.8494 18.4489 87.5663 19.791 87.0038 21.0032C86.4413 22.2191 85.6147 23.1751 84.5318 23.8825C83.4451 24.586 82.167 24.9378 80.6938 24.9378C79.2205 24.9378 77.9386 24.586 76.8557 23.8825ZM82.829 22.7583C83.4489 22.1732 83.9234 21.3703 84.2601 20.3531C84.5969 19.336 84.7652 18.208 84.7652 16.9729C84.7652 15.7379 84.5969 14.6099 84.2601 13.5927C83.9234 12.5756 83.4451 11.7726 82.829 11.1876C82.2091 10.6026 81.5012 10.3081 80.6976 10.3081C79.894 10.3081 79.1861 10.6026 78.5662 11.1876C77.9463 11.7726 77.4718 12.5756 77.1351 13.5927C76.7983 14.6137 76.63 15.7379 76.63 16.9729C76.63 18.208 76.7983 19.336 77.1351 20.3531C77.4718 21.3741 77.9501 22.1732 78.5662 22.7583C79.1861 23.3433 79.894 23.6377 80.6976 23.6377C81.4973 23.6377 82.2091 23.3433 82.829 22.7583Z" fill="#1A3D37"/>
<path d="M91.6605 24.4829C91.3123 24.1808 91.1401 23.7793 91.1401 23.2784C91.1401 22.8005 91.3123 22.3684 91.6605 21.9783C92.0088 21.5883 92.4182 21.3933 92.8965 21.3933C93.394 21.3933 93.8111 21.5883 94.1478 21.9783C94.4846 22.3684 94.6529 22.8005 94.6529 23.2784C94.6529 23.7755 94.4807 24.177 94.1325 24.4829C93.7843 24.785 93.371 24.9379 92.8965 24.9379C92.422 24.9379 92.0088 24.785 91.6605 24.4829Z" fill="#1A3D37"/>
<path d="M98.8543 10.7786C98.552 10.2471 97.9436 9.98323 97.0328 9.98323H96.3823V9.33319H99.3096C100.113 9.33319 100.714 9.43643 101.116 9.64292C101.518 9.8494 101.805 10.2241 101.977 10.7633C102.149 11.3063 102.237 12.1284 102.237 13.2334V24.6129H99.3096V13.2334C99.3096 12.1284 99.1566 11.3101 98.8543 10.7786ZM99.2599 6.75981C98.9002 6.34684 98.7242 5.86123 98.7242 5.29531C98.7242 4.84028 98.8581 4.48085 99.1298 4.22083C99.4015 3.96082 99.765 3.83081 100.22 3.83081C100.718 3.83081 101.146 4.03729 101.506 4.45026C101.866 4.86322 102.042 5.34884 102.042 5.91476C102.042 6.36978 101.908 6.72922 101.636 6.98923C101.365 7.24925 101.001 7.37926 100.546 7.37926C100.044 7.37926 99.6158 7.17277 99.2599 6.75981Z" fill="#FAB737"/>
<path d="M106.856 10.7785C106.553 10.247 105.945 9.98311 105.034 9.98311H104.384V9.33308H107.311C108.115 9.33308 108.727 9.44014 109.148 9.65809C109.573 9.87605 109.879 10.2011 110.074 10.6332H110.238C110.694 10.1781 111.283 9.79192 112.01 9.47838C112.737 9.16483 113.556 9.00806 114.467 9.00806C116.093 9.00806 117.421 9.44014 118.454 10.3081C119.483 11.1761 120 12.6942 120 14.8622V24.6166H117.073V14.8622C117.073 13.3442 116.732 12.2353 116.047 11.5279C115.362 10.8243 114.513 10.4726 113.491 10.4726C112.339 10.4726 111.256 11.0461 110.238 12.1971V24.6204H107.311V13.241C107.315 12.1282 107.162 11.31 106.856 10.7785Z" fill="#FAB737"/>
</svg>
